<?xml version="1.0" encoding="UTF-8" standalone="no"?>
<!DOCTYPE svg PUBLIC "-//W3C//DTD SVG 1.1//EN" "http://www.w3.org/Graphics/SVG/1.1/DTD/svg11.dtd">
<svg xmlns="http://www.w3.org/2000/svg" version="1.1" viewBox="0.00 0.00 1024.00 228.00">
<path fill="#000000" d="
  M 223.9293 114.7129
  A 109.68 109.54 0.2 0 1 113.8676 223.8693
  A 109.68 109.54 0.2 0 1 4.5707 113.9471
  A 109.68 109.54 0.2 0 1 114.6324 4.7907
  A 109.68 109.54 0.2 0 1 223.9293 114.7129
  Z
  M 214.29 114.33
  A 100.05 100.05 0.0 0 0 114.24 14.28
  A 100.05 100.05 0.0 0 0 14.19 114.33
  A 100.05 100.05 0.0 0 0 114.24 214.38
  A 100.05 100.05 0.0 0 0 214.29 114.33
  Z"
/>
<path fill="#000000" d="
  M 102.69 85.93
  C 98.32 90.00 95.72 96.37 95.72 102.50
  Q 95.75 125.31 95.75 127.63
  Q 95.74 128.42 95.09 127.98
  Q 86.53 122.21 79.18 117.34
  C 75.57 114.95 72.22 114.40 67.45 114.38
  Q 55.74 114.33 44.27 114.37
  Q 43.47 114.37 44.05 113.83
  L 141.53 23.13
  A 0.21 0.21 0.0 0 1 141.88 23.28
  L 141.88 49.00
  A 1.11 1.11 0.0 0 1 141.52 49.82
  Q 134.09 56.66 102.69 85.93
  Z"
/>
<path fill="#000000" d="
  M 254.80 137.86
  L 281.55 137.86
  A 0.41 0.41 0.0 0 1 281.96 138.27
  L 281.96 146.06
  A 0.41 0.41 0.0 0 1 281.55 146.47
  L 243.83 146.47
  A 0.41 0.41 0.0 0 1 243.42 146.06
  L 243.42 87.93
  A 0.41 0.41 0.0 0 1 243.83 87.52
  L 281.54 87.52
  A 0.41 0.41 0.0 0 1 281.95 87.93
  L 281.95 95.64
  A 0.41 0.41 0.0 0 1 281.54 96.05
  L 254.79 96.05
  A 0.41 0.41 0.0 0 0 254.38 96.46
  L 254.38 111.86
  A 0.41 0.41 0.0 0 0 254.79 112.27
  L 279.25 112.27
  A 0.41 0.41 0.0 0 1 279.66 112.68
  L 279.66 120.51
  A 0.41 0.41 0.0 0 1 279.25 120.92
  L 254.80 120.92
  A 0.41 0.41 0.0 0 0 254.39 121.33
  L 254.39 137.45
  A 0.41 0.41 0.0 0 0 254.80 137.86
  Z"
/>
<path fill="#000000" d="
  M 315.99 134.88
  Q 316.04 134.88 316.17 134.50
  Q 326.38 105.92 332.50 88.11
  Q 332.70 87.54 333.29 87.54
  L 343.85 87.54
  A 0.28 0.27 10.2 0 1 344.11 87.91
  L 322.75 146.14
  A 0.43 0.43 0.0 0 1 322.36 146.43
  Q 321.00 146.46 315.99 146.46
  Q 310.97 146.46 309.62 146.42
  A 0.43 0.43 0.0 0 1 309.22 146.13
  L 287.91 87.88
  A 0.28 0.27 -10.2 0 1 288.18 87.51
  L 298.74 87.52
  Q 299.33 87.52 299.52 88.10
  Q 305.63 105.91 315.81 134.50
  Q 315.95 134.88 315.99 134.88
  Z"
/>
<rect fill="#000000" x="351.19" y="87.53" width="10.98" height="58.92" rx="0.35"/>
<path fill="#000000" d="
  M 373.43 88.00
  A 0.51 0.51 0.0 0 1 373.94 87.49
  L 397.07 87.53
  A 27.00 26.98 0.1 0 1 424.02 114.55
  L 424.02 119.55
  A 27.00 26.98 0.1 0 1 396.97 146.49
  L 373.84 146.45
  A 0.51 0.51 0.0 0 1 373.33 145.94
  L 373.43 88.00
  Z
  M 384.37 97.35
  L 384.43 136.61
  A 0.54 0.54 0.0 0 0 384.98 137.15
  L 396.23 137.13
  A 16.91 16.69 89.9 0 0 412.89 120.20
  L 412.87 113.68
  A 16.91 16.69 89.9 0 0 396.15 96.79
  L 384.90 96.81
  A 0.54 0.54 0.0 0 0 384.37 97.35
  Z"
/>
<path fill="#000000" d="
  M 445.06 120.90
  Q 444.45 120.90 444.45 121.52
  L 444.45 137.45
  A 0.39 0.38 -90.0 0 0 444.83 137.84
  L 471.67 137.84
  Q 472.00 137.84 472.00 138.17
  L 472.00 145.98
  A 0.47 0.46 -90.0 0 1 471.54 146.45
  L 434.13 146.45
  Q 433.48 146.45 433.48 145.81
  L 433.49 88.06
  Q 433.49 87.54 434.02 87.54
  L 471.53 87.54
  Q 472.00 87.54 472.00 88.02
  L 472.01 95.56
  Q 472.01 96.07 471.49 96.07
  L 445.00 96.06
  Q 444.45 96.06 444.45 96.61
  L 444.44 111.65
  Q 444.44 112.28 445.08 112.27
  L 469.25 112.27
  Q 469.71 112.27 469.71 112.73
  L 469.70 120.50
  Q 469.70 120.93 469.27 120.93
  L 445.06 120.90
  Z"
/>
<path fill="#000000" d="
  M 510.85 114.15
  Q 515.57 121.03 520.02 127.92
  Q 520.67 128.92 520.67 127.72
  L 520.67 88.18
  Q 520.67 87.54 521.31 87.54
  L 531.22 87.54
  Q 531.66 87.54 531.66 87.98
  L 531.66 146.02
  Q 531.66 146.46 531.23 146.46
  L 520.89 146.46
  A 0.46 0.44 72.9 0 1 520.52 146.25
  Q 511.78 132.92 502.84 119.86
  Q 498.13 112.98 493.67 106.09
  Q 493.02 105.09 493.02 106.29
  L 493.02 145.83
  Q 493.02 146.47 492.38 146.47
  L 482.47 146.47
  Q 482.03 146.47 482.03 146.03
  L 482.03 87.99
  Q 482.03 87.55 482.46 87.55
  L 492.80 87.55
  A 0.46 0.44 72.9 0 1 493.18 87.75
  Q 501.91 101.09 510.85 114.15
  Z"
/>
<path fill="#000000" d="
  M 562.29 87.54
  Q 573.67 87.54 584.48 87.55
  A 0.49 0.48 -90.0 0 1 584.96 88.04
  L 584.96 95.58
  A 0.49 0.48 -90.0 0 1 584.48 96.07
  L 568.20 96.07
  Q 567.68 96.07 567.68 96.60
  L 567.68 146.01
  A 0.44 0.44 0.0 0 1 567.24 146.45
  Q 564.84 146.46 562.25 146.46
  Q 559.66 146.46 557.26 146.44
  A 0.44 0.44 0.0 0 1 556.83 146.00
  L 556.89 96.59
  Q 556.89 96.06 556.37 96.06
  L 540.09 96.04
  A 0.49 0.48 -89.9 0 1 539.62 95.55
  L 539.63 88.01
  A 0.49 0.48 -89.9 0 1 540.11 87.52
  Q 550.91 87.53 562.29 87.54
  Z"
/>
<path fill="#000000" d="
  M 646.31 116.31
  Q 652.04 118.20 654.79 122.97
  Q 657.75 128.10 656.57 133.52
  Q 655.46 138.67 651.43 142.13
  Q 646.69 146.19 640.14 146.39
  Q 634.58 146.56 613.25 146.40
  Q 612.79 146.39 612.79 145.93
  L 612.79 88.20
  Q 612.79 87.62 613.36 87.62
  Q 633.97 87.34 641.99 87.91
  Q 644.55 88.09 648.16 90.09
  C 653.67 93.14 656.23 98.87 655.37 105.11
  Q 654.95 108.11 653.22 110.51
  C 651.21 113.30 649.13 114.37 646.27 115.80
  Q 645.67 116.10 646.31 116.31
  Z
  M 623.73 96.44
  L 623.63 111.74
  A 0.38 0.38 0.0 0 0 624.00 112.12
  L 635.90 112.20
  A 8.46 7.33 0.4 0 0 644.41 104.93
  L 644.42 103.53
  A 8.46 7.33 0.4 0 0 636.02 96.14
  L 624.12 96.06
  A 0.38 0.38 0.0 0 0 623.73 96.44
  Z
  M 623.71 120.85
  L 623.65 137.21
  A 0.46 0.46 0.0 0 0 624.11 137.67
  L 636.57 137.72
  A 9.24 7.97 0.2 0 0 645.84 129.78
  L 645.84 128.44
  A 9.24 7.97 0.2 0 0 636.63 120.44
  L 624.17 120.39
  A 0.46 0.46 0.0 0 0 623.71 120.85
  Z"
/>
<path fill="#000000" d="
  M 689.98 87.55
  Q 692.55 87.55 695.60 87.64
  Q 696.13 87.66 696.32 88.16
  L 717.47 145.90
  A 0.42 0.42 0.0 0 1 717.07 146.46
  L 706.60 146.46
  Q 706.21 146.46 706.09 146.09
  L 701.71 133.38
  Q 701.56 132.92 700.89 132.87
  Q 700.20 132.82 689.99 132.83
  Q 679.77 132.83 679.08 132.88
  Q 678.41 132.92 678.27 133.38
  L 673.89 146.09
  Q 673.77 146.46 673.38 146.46
  L 662.91 146.47
  A 0.42 0.42 0.0 0 1 662.51 145.91
  L 683.64 88.16
  Q 683.83 87.66 684.36 87.65
  Q 687.41 87.55 689.98 87.55
  Z
  M 689.89 100.66
  Q 689.84 100.66 689.79 100.67
  Q 689.64 100.71 689.60 100.84
  L 681.68 123.71
  Q 681.47 124.32 682.12 124.33
  Q 683.69 124.37 689.97 124.35
  Q 696.24 124.33 697.81 124.28
  Q 698.47 124.26 698.25 123.65
  L 690.18 100.84
  Q 690.13 100.71 689.99 100.67
  Q 689.94 100.66 689.89 100.66
  Z"
/>
<path fill="#000000" d="
  M 744.44 146.44
  Q 741.85 146.44 739.45 146.42
  A 0.44 0.44 0.0 0 1 739.02 145.98
  L 739.03 96.59
  Q 739.03 96.06 738.51 96.06
  L 722.24 96.06
  A 0.49 0.48 -90.0 0 1 721.76 95.57
  L 721.76 88.03
  A 0.49 0.48 90.0 0 1 722.24 87.54
  Q 733.04 87.54 744.42 87.54
  Q 755.79 87.53 766.59 87.52
  A 0.49 0.48 90.0 0 1 767.07 88.01
  L 767.08 95.55
  A 0.49 0.48 89.9 0 1 766.60 96.04
  L 750.33 96.06
  Q 749.81 96.06 749.81 96.59
  L 749.87 145.98
  A 0.44 0.44 0.0 0 1 749.43 146.41
  Q 747.03 146.43 744.44 146.44
  Z"
/>
<path fill="#000000" d="
  M 794.14 146.48
  Q 791.55 146.48 789.15 146.46
  A 0.44 0.44 0.0 0 1 788.71 146.02
  L 788.80 96.58
  Q 788.80 96.05 788.28 96.05
  L 771.99 96.02
  A 0.49 0.48 -89.9 0 1 771.51 95.53
  L 771.53 87.98
  A 0.49 0.48 -89.9 0 1 772.01 87.49
  Q 782.82 87.51 794.21 87.52
  Q 805.60 87.53 816.41 87.54
  A 0.49 0.48 -90.0 0 1 816.89 88.03
  L 816.89 95.58
  A 0.49 0.48 -90.0 0 1 816.41 96.07
  L 800.12 96.06
  Q 799.60 96.06 799.60 96.59
  L 799.57 146.04
  A 0.44 0.44 0.0 0 1 799.14 146.47
  Q 796.74 146.49 794.14 146.48
  Z"
/>
<path fill="#000000" d="
  M 836.51 120.91
  Q 835.90 120.91 835.90 121.53
  L 835.90 137.46
  A 0.39 0.38 -90.0 0 0 836.28 137.85
  L 863.13 137.85
  Q 863.46 137.85 863.46 138.18
  L 863.46 146.00
  A 0.47 0.46 -90.0 0 1 863.00 146.47
  L 825.58 146.46
  Q 824.93 146.46 824.93 145.82
  L 824.94 88.06
  Q 824.94 87.54 825.47 87.54
  L 862.99 87.54
  Q 863.46 87.54 863.46 88.02
  L 863.47 95.56
  Q 863.47 96.07 862.95 96.07
  L 836.45 96.06
  Q 835.90 96.06 835.90 96.61
  L 835.90 111.65
  Q 835.90 112.28 836.54 112.27
  L 860.71 112.28
  Q 861.17 112.28 861.17 112.74
  L 861.15 120.51
  Q 861.15 120.94 860.72 120.94
  L 836.51 120.91
  Z"
/>
<path fill="#000000" d="
  M 904.86 121.61
  A 0.35 0.35 0.0 0 0 904.66 122.09
  L 916.62 146.23
  A 0.17 0.17 0.0 0 1 916.47 146.47
  L 905.08 146.47
  Q 904.60 146.47 904.39 146.04
  L 893.25 123.55
  Q 893.01 123.08 892.49 123.08
  L 885.02 123.08
  Q 884.37 123.08 884.37 123.73
  L 884.37 145.85
  Q 884.37 146.47 883.76 146.47
  L 874.34 146.47
  Q 873.70 146.47 873.70 145.83
  L 873.70 88.07
  Q 873.70 87.54 874.22 87.54
  Q 888.37 87.49 897.51 87.63
  C 909.10 87.80 917.53 96.23 915.86 108.11
  Q 914.43 118.24 904.86 121.61
  Z
  M 884.36 96.97
  L 884.36 114.73
  A 0.42 0.42 0.0 0 0 884.78 115.15
  L 896.09 115.15
  A 8.97 8.64 0.0 0 0 905.06 106.51
  L 905.06 105.19
  A 8.97 8.64 -0.0 0 0 896.09 96.55
  L 884.78 96.55
  A 0.42 0.42 0.0 0 0 884.36 96.97
  Z"
/>
<path fill="#000000" d="
  M 946.80 114.02
  Q 947.22 114.02 947.64 113.13
  Q 954.16 99.15 959.66 87.94
  A 0.72 0.71 -76.5 0 1 960.30 87.54
  L 971.54 87.54
  A 0.31 0.31 0.0 0 1 971.81 87.99
  Q 954.50 121.11 953.15 123.55
  Q 952.09 125.47 952.12 127.65
  Q 952.16 130.67 952.16 146.07
  A 0.40 0.39 -0.4 0 1 951.77 146.46
  Q 951.43 146.47 946.77 146.46
  Q 942.11 146.46 941.77 146.45
  A 0.40 0.39 0.5 0 1 941.38 146.06
  Q 941.41 130.66 941.46 127.64
  Q 941.49 125.46 940.43 123.54
  Q 939.09 121.09 921.85 87.94
  A 0.31 0.31 0.0 0 1 922.12 87.49
  L 933.36 87.51
  A 0.72 0.71 76.6 0 1 934.00 87.91
  Q 939.47 99.13 945.97 113.13
  Q 946.38 114.02 946.80 114.02
  Z"
/>
<path fill="#000000" d="
  M 132.75 126.17
  Q 132.72 103.37 132.72 101.05
  Q 132.73 100.26 133.38 100.70
  Q 141.94 106.47 149.28 111.34
  C 152.89 113.73 156.24 114.28 161.00 114.30
  Q 172.71 114.36 184.17 114.32
  Q 184.97 114.32 184.39 114.86
  L 86.94 205.48
  A 0.21 0.21 0.0 0 1 86.59 205.33
  L 86.60 179.62
  A 1.11 1.11 0.0 0 1 86.96 178.80
  Q 94.39 171.97 125.78 142.73
  C 130.14 138.66 132.74 132.30 132.75 126.17
  Z"
/>
<circle fill="#000000" cx="114.26" cy="114.33" r="12.53"/>
</svg>
